inDegrees=no
num_controls=7
num_derivatives=13
num_iterations=124
num_multipliers=7
num_parameters=0
num_slacks=7
num_states=26
objective=6.000251
objective_accelerations=1.014487
objective_balance=0.089035
objective_effort=0.677613
objective_height=4.165391
objective_ligament=0.053724
solver_duration=1223.930654
status=Solve_Succeeded
success=true
DataType=double
version=3
OpenSimVersion=4.4-2022-07-23-0e9fedc
endheader
time	/jointset/ground_pelvis/pelvis_tilt/value	/jointset/ground_pelvis/pelvis_tx/value	/jointset/ground_pelvis/pelvis_ty/value	/jointset/hip_l/hip_flexion_l/value	/jointset/hip_l/hip_adduction_l/value	/jointset/hip_l/hip_rotation_l/value	/jointset/back/lumbar_extension/value	/jointset/patellofemoral_l/patellar_flexion_l/value	/jointset/knee_l/knee_flexion_l/value	/jointset/knee_l/knee_adduction_l/value	/jointset/knee_l/knee_rotation_l/value	/jointset/ankle_l/ankle_angle_l/value	/jointset/subtalar_l/subtalar_angle_l/value	/jointset/ground_pelvis/pelvis_tilt/speed	/jointset/ground_pelvis/pelvis_tx/speed	/jointset/ground_pelvis/pelvis_ty/speed	/jointset/hip_l/hip_flexion_l/speed	/jointset/hip_l/hip_adduction_l/speed	/jointset/hip_l/hip_rotation_l/speed	/jointset/back/lumbar_extension/speed	/jointset/patellofemoral_l/patellar_flexion_l/speed	/jointset/knee_l/knee_flexion_l/speed	/jointset/knee_l/knee_adduction_l/speed	/jointset/knee_l/knee_rotation_l/speed	/jointset/ankle_l/ankle_angle_l/speed	/jointset/subtalar_l/subtalar_angle_l/speed	/forceset/tau_hip_flexion_l	/forceset/tau_hip_adduction_l	/forceset/tau_hip_rotation_l	/forceset/tau_knee_flexion_l	/forceset/tau_ankle_angle_l	/forceset/tau_subtalar_angle_l	/forceset/tau_lumbar_extension	lambda_cid13_p0	lambda_cid13_p1	lambda_cid13_p2	lambda_cid13_p3	lambda_cid13_p4	lambda_cid13_p5	lambda_cid14_p0	/jointset/ground_pelvis/pelvis_tilt/accel	/jointset/ground_pelvis/pelvis_tx/accel	/jointset/ground_pelvis/pelvis_ty/accel	/jointset/hip_l/hip_flexion_l/accel	/jointset/hip_l/hip_adduction_l/accel	/jointset/hip_l/hip_rotation_l/accel	/jointset/back/lumbar_extension/accel	/jointset/patellofemoral_l/patellar_flexion_l/accel	/jointset/knee_l/knee_flexion_l/accel	/jointset/knee_l/knee_adduction_l/accel	/jointset/knee_l/knee_rotation_l/accel	/jointset/ankle_l/ankle_angle_l/accel	/jointset/subtalar_l/subtalar_angle_l/accel	gamma_cid13_p0	gamma_cid13_p1	gamma_cid13_p2	gamma_cid13_p3	gamma_cid13_p4	gamma_cid13_p5	gamma_cid14_p0
1	-0.1457221349742678	-0.05079080806046588	0.42748151633442	2.089104289000498	-0.3022957641102557	0.1205279448484928	-0.9599045287250605	2.092910951295773	2.092910951295752	0.1744629664769587	-0.1745318180001014	0.2997277075033774	0.1087810117699471	0.04802123904442648	0.002547404434139399	0.07600871849695788	-0.2939462382634358	-0.01987387357040857	-0.05472908218586729	0.000111875116106784	-0.1492640969549037	-0.1492640969549149	-0.01344995860599768	0.0002340454794870819	0.09073198972508743	0.01914439028916101	-0.4331241366876434	-0.01619316796875163	-0.06238950977550995	-0.4077203970235475	0.01945765935582503	-0.006440411820371339	0.4654384009330592	-51.98238125043904	22.17437270881421	-15.72667393514196	36.29102383007622	-863.5058542224608	-12.86125453494369	-0.02312603570892489	-0.4928710737889999	-0.7393380379435598	2.734769604972204	-8.092637241900757	-0.3375837629198051	-1.907961829266565	-0.01995181069756603	-7.52357991136701	-7.523579911367331	-1.252388659329932	0.000769154597607985	0.5827332939433369	-0.1366350252868598	2.178527139847464e-08	3.025554148158019e-08	-2.893837913756581e-07	-4.711603529175236e-08	-7.188636748593699e-08	-2.079690567173423e-07	2.356165304784271e-08
1.01	-0.1452666530075403	-0.05080218007630789	0.4283785044753732	2.085759971966005	-0.3025098080989141	0.119889289447976	-0.9599041607517279	2.091041685449492	2.09104168544949	0.1742629149722592	-0.1745284135504692	0.3006640246594234	0.1089676533646916	0.0430902244654131	-0.00480288283595693	0.1034007470106841	-0.3748948525589879	-0.02291035017036	-0.0729519978390904	-2.319857023927276e-05	-0.2246240462247013	-0.224624046224718	-0.02660357052446427	0.0004360269978474453	0.09645586204810705	0.01817862628491346	-0.4329770804366294	-0.0159452222936544	-0.06231784477972146	-0.4092029721652983	0.01994463825375958	-0.006081335485025337	0.4657474477961113	-51.83858251448088	21.99934917504644	-15.70574011514551	35.92212581769024	-864.172921423825	-13.32749128905497	-0.02326792051432484	-0.4909568567187136	-0.7300508540091466	2.743173548831174	-8.092627463057978	-0.2829242198387021	-1.771957051335732	-0.008022870101535538	-7.547455891437754	-7.547455891438153	-1.353295068563161	0.02820182349841659	0.5558777287266754	-0.07729418390472362	3.351727816072966e-08	-1.040253634313641e-08	-3.9064806373921e-07	-7.718396261945184e-08	-1.072587777535573e-07	-4.017227001578432e-07	3.67089242177541e-08
1.02	-0.144860029227985	-0.05088649032134323	0.4295497637163154	2.081606838000609	-0.3027534657758141	0.1190699047674097	-0.9599046910595628	2.088417769419184	2.088417769419177	0.173930037826541	-0.1745233314512177	0.3016553132441452	0.1091444879002078	0.038249601615954	-0.01204024140452838	0.1308629384947822	-0.4557096244415249	-0.02579661122254799	-0.09087493821174315	-6.778115648486223e-05	-0.3001941337605621	-0.3001941337605809	-0.040015086861287	0.0005695754379224262	0.1017262754609369	0.01718297844421987	-0.4328300241855762	-0.01569727661851457	-0.06224617978350509	-0.410685547307061	0.02043161715168407	-0.005722259149629285	0.4660564946591985	-51.68566352860375	21.82379313168743	-15.68593635274823	35.55483630290671	-864.7032343989338	-13.755645328256	-0.02347164931877113	-0.4747927278782101	-0.7167522976385534	2.748802199046539	-8.065868759297603	-0.3075406533673568	-1.847966773152764	-0.001853590677991374	-7.565607564579597	-7.565607564579203	-1.303969543001007	-0.01291746105976021	0.492041511905371	-0.1426117925763763	4.904825270610564e-08	-7.14933375129352e-08	-5.261908528118898e-07	-1.061874981990321e-07	-1.447678695022217e-07	-7.313671909947939e-07	6.098337578442208e-08
1.03	-0.1445008171510257	-0.05104243432528028	0.4309959854314857	2.076646181329845	-0.3030252225034466	0.1180729127228738	-0.9599054866648928	2.085037375065991	2.085037375065986	0.1734617876052553	-0.1745173419752268	0.30269683603151	0.1093111318171489	0.03366021959466507	-0.01911246996604497	0.1583925319749441	-0.5364066752419836	-0.02852458515382125	-0.1084880419002958	-0.0001022964266344872	-0.3758939412049727	-0.3758939412049821	-0.05364815593926962	0.0006270940114287481	0.1064849232543875	0.01613933929702564	-0.4326961362579252	-0.01540450472980882	-0.0620594640445099	-0.4123962821081141	0.02138051981130336	-0.005200663615758697	0.4664641892626126	-51.36696276691045	21.53449476315997	-15.63185640689467	34.85063996176152	-865.3036808962838	-14.41213953833476	-0.02371666267557092	-0.4408961704469625	-0.6970719344080767	2.756670350600147	-8.069365152827867	-0.250794748241283	-1.71266220823061	-0.005893974159980206	-7.573565205257164	-7.573565205255822	-1.39488203464541	0.01474040367015087	0.4537717227112052	-0.08610962304403251	6.461799222886044e-08	-1.327926358597247e-07	-6.620834226673159e-07	-1.351801726383254e-07	-1.822987641231416e-07	-1.062398323131709e-06	8.537137000819988e-08
1.04	-0.1441854759405503	-0.05126802337463158	0.4327178295670775	2.070879005768555	-0.3033233327674263	0.1169008536332152	-0.95990695611854	2.080899703064177	2.080899703064189	0.1728568254045066	-0.1745108465361444	0.3037831443587371	0.109467165413164	0.02947542832566769	-0.02596925048737818	0.1859874225791018	-0.6170134025387243	-0.03106731849444853	-0.1258883472498155	-0.0002025508557984627	-0.4516496634847981	-0.4516496634847992	-0.06735748279522526	0.0006707680694967738	0.1106833834336869	0.01506091425970392	-0.4325622483303257	-0.01511173284109424	-0.06187274830523445	-0.4141070169091733	0.02232942247093513	-0.004679068081872437	0.4668718838659772	-51.03977522619795	21.24377430510001	-15.57762194361755	34.15201948950297	-865.7750131355182	-15.0373483807462	-0.0240214533130539	-0.3938745774200181	-0.673662689601797	2.761861623845673	-8.047804058553931	-0.2704925352385281	-1.805407105346256	-0.01500142248040032	-7.576790531662488	-7.57679053166231	-1.319221098595688	-0.01568636414798973	0.3800039890752131	-0.1495689706023103	8.069332832866588e-08	-1.974489796904652e-07	-7.955269211685792e-07	-1.625059306990426e-07	-2.160996601962191e-07	-1.405764102461352e-06	1.11096292731134e-07
1.05	-0.1439097913598206	-0.05156094746013663	0.4347158870753412	2.064306603360893	-0.3036459287612463	0.1155561949520662	-0.95990961341245	2.076004406038421	2.076004406038445	0.1721141853877142	-0.1745041521551251	0.3049083044630309	0.1096120913944393	0.02574376646405303	-0.03256444246208106	0.2136294775005985	-0.6974181287907496	-0.03341438790890509	-0.1429950368116691	-0.0003247143368192917	-0.5274001920770333	-0.52740019207704	-0.08118169136055493	0.0006676871676154469	0.1142260942074874	0.01391287481737826	-0.4324054418077264	-0.01477698653986223	-0.06156032968645637	-0.4160626054074097	0.02375639320395256	-0.004005969335289384	0.4673862092503416	-50.54294807871051	20.84367087604226	-15.49009248429673	33.13033823802845	-866.3151660734103	-15.88743787358491	-0.024369523755802	-0.3504609641612066	-0.6448170597677665	2.766136893288733	-8.029456401761388	-0.2110436482623424	-1.656032200789979	-0.0101947718775405	-7.572779217180482	-7.572779217181208	-1.41558523893318	0.007081776036953156	0.3230210119771618	-0.09897990957075452	9.678446432150413e-08	-2.622102311925791e-07	-9.288938861900248e-07	-1.897795976229293e-07	-2.497839938146765e-07	-1.749515339515767e-06	1.368629944696668e-07
1.06	-0.1436689531924625	-0.05191829738706037	0.4369905170262171	2.056931623792083	-0.3039908413499339	0.1140419229115258	-0.9599133665331053	2.070351884687907	2.070351884687909	0.1712329903846065	-0.1744975484372853	0.3060652149531485	0.1097452252855837	0.02250614565728002	-0.03885441877111783	0.2413019111015805	-0.7775288347721298	-0.03553063747188118	-0.1598110191409219	-0.0004217162563777704	-0.6030945284363307	-0.6030945284363444	-0.09506848006317499	0.0006526354355374554	0.1170334605990688	0.01270249623412984	-0.4322486352849889	-0.01444224023858915	-0.06124791106768854	-0.4180181939056572	0.02518336393692795	-0.003332870588669303	0.4679005346348279	-50.03853625745352	20.44125389596737	-15.40106773934814	32.11940692977366	-866.7372160928726	-16.71343222590391	-0.0247737979450859	-0.2950663664519201	-0.6126195564684582	2.767937359742741	-7.98900000442489	-0.2243285649428237	-1.74726565882609	-0.009969110186332512	-7.565552085074863	-7.565552085074908	-1.331737126053941	-0.0180805301879461	0.232935112631548	-0.1620367987872791	1.13420755625012e-07	-3.339602317638472e-07	-1.067230696402104e-06	-2.132864651462633e-07	-2.78943449581926e-07	-2.126378813235276e-06	1.657653760263345e-07
1.07	-0.1434577572298629	-0.0523368721223809	0.4395419490905199	2.048757303223208	-0.3043557984310777	0.1123610637938063	-0.9599179252432221	2.063942956677931	2.063942956677949	0.1702125948695905	-0.1744912862387859	0.3072462294686447	0.1098657463994517	0.01983926735877775	-0.04479524132884503	0.2689831091127745	-0.85726333375002	-0.03741929407680952	-0.1763163043004678	-0.0004810947581388388	-0.6786595302048607	-0.6786595302048694	-0.1090050876597171	0.0006035828223666278	0.1190229102721596	0.01138367267762661	-0.432056370567131	-0.01405725823914836	-0.06080543116563445	-0.4201158387564442	0.02701147576446467	-0.002520316255039555	0.4684766702033538	-49.38438305891929	19.93698539550448	-15.27859531001744	30.81758292918836	-867.1293662997061	-17.73714698757441	-0.0252173659781171	-0.2365495403609569	-0.5750682086028157	2.767940143489339	-7.954868600410275	-0.1647260262607101	-1.595456430128564	-0.002582565569328375	-7.547282097331523	-7.547282097330568	-1.423639914306718	0.001934902064586838	0.1599663174697124	-0.1193046246958986	1.300860445514278e-07	-4.060819743068788e-07	-1.20583186008177e-06	-2.365929709993551e-07	-3.078622203570898e-07	-2.505003576139098e-06	1.948345490626903e-07
1.08	-0.1432700402460371	-0.05281290600391336	0.4423701389592705	2.039787798913367	-0.3047383604418537	0.1105164925274008	-0.9599228098070308	2.056779317075351	2.056779317075356	0.1690530298113401	-0.1744854640605966	0.3084427417654391	0.1099725793796292	0.0178103499078104	-0.05034624801350324	0.2966534719911783	-0.9365655829654617	-0.039051623401431	-0.1925534488844095	-0.0004868870757961555	-0.7540368469569773	-0.7540368469569813	-0.1229023887703882	0.0005646313670460989	0.120133016858121	0.00996486949656486	-0.4318641058492013	-0.01367227623973026	-0.06036295126312092	-0.4222134836072519	0.02883958759196639	-0.001707761921464667	0.4690528057719354	-48.72389118888906	19.42951361609705	-15.15322023322003	29.53305769461288	-867.4188996267912	-18.74470560641423	-0.02571198706107901	-0.1674741969452344	-0.5346563818545244	2.765770333184736	-7.902550051935178	-0.1730631088818319	-1.693637543705176	0.0007481266377452975	-7.52801508179208	-7.528015081792182	-1.323875828879985	-0.01606029861845184	0.05706649520590815	-0.1820327236993073	1.443114691573544e-07	-4.773176511495418e-07	-1.335792048324983e-06	-2.520740478087864e-07	-3.296191616613777e-07	-2.859888294986369e-06	2.226019346440666e-07
